# xmcd
#
# Track frame offsets: 
#        150
#        14395
#        30525
#        57122
#        71365
#        84430
#        96022
#        113865
#        130142
#        140567
#
# Disc length: 2160 seconds
#
# Revision: 0
# Processed by: cddbd v1.5.2PL0 Copyright (c) Steve Scherf et al.
# Submitted via: ExactAudioCopy v0.95b4
#
DISCID=7c086e0a
DTITLE=Brent Mason - Hot Wired
DYEAR=1997
DGENRE=Country
TTITLE0=Hot Wired
TTITLE1=Swing With A Sting
TTITLE2=Mellow Midnight
TTITLE3=Blowin' Smoke
TTITLE4=First Rule Of Thumb
TTITLE5=Sugarfoot Rag
TTITLE6=Blue Water Girl
TTITLE7=My Little Ballerina
TTITLE8=Gator Bite
TTITLE9=Cayman Moon
EXTD=
EXTT0=
EXTT1=
EXTT2=
EXTT3=
EXTT4=
EXTT5=
EXTT6=
EXTT7=
EXTT8=
EXTT9=
PLAYORDER=
